<mxfile host="65bd71144e" pages="4">
    <diagram id="C5RBs43oDa-KdzZeNtuy" name="Общая схема">
        <mxGraphModel dx="939" dy="312" grid="1" gridSize="10" guides="1" tooltips="1" connect="1" arrows="1" fold="1" page="1" pageScale="1" pageWidth="827" pageHeight="1169" math="0" shadow="0">
            <root>
                <mxCell id="WIyWlLk6GJQsqaUBKTNV-0"/>
                <mxCell id="WIyWlLk6GJQsqaUBKTNV-1" parent="WIyWlLk6GJQsqaUBKTNV-0"/>
                <mxCell id="o0U5vX0BOEWEdHnp0pGY-16" value="" style="edgeStyle=orthogonalEdgeStyle;rounded=0;orthogonalLoop=1;jettySize=auto;html=1;" parent="WIyWlLk6GJQsqaUBKTNV-1" source="o0U5vX0BOEWEdHnp0pGY-17" target="o0U5vX0BOEWEdHnp0pGY-20" edge="1">
                    <mxGeometry relative="1" as="geometry"/>
                </mxCell>
                <mxCell id="o0U5vX0BOEWEdHnp0pGY-17" value="Start" style="ellipse;whiteSpace=wrap;html=1;" parent="WIyWlLk6GJQsqaUBKTNV-1" vertex="1">
                    <mxGeometry x="92" y="30" width="146" height="50" as="geometry"/>
                </mxCell>
                <mxCell id="o0U5vX0BOEWEdHnp0pGY-18" style="edgeStyle=orthogonalEdgeStyle;rounded=0;orthogonalLoop=1;jettySize=auto;html=1;exitX=0.5;exitY=1;exitDx=0;exitDy=0;" parent="WIyWlLk6GJQsqaUBKTNV-1" edge="1">
                    <mxGeometry relative="1" as="geometry">
                        <mxPoint x="165" y="260" as="sourcePoint"/>
                        <mxPoint x="165" y="260" as="targetPoint"/>
                    </mxGeometry>
                </mxCell>
                <mxCell id="o0U5vX0BOEWEdHnp0pGY-19" value="" style="edgeStyle=orthogonalEdgeStyle;rounded=0;orthogonalLoop=1;jettySize=auto;html=1;" edge="1" parent="WIyWlLk6GJQsqaUBKTNV-1" source="o0U5vX0BOEWEdHnp0pGY-20" target="o0U5vX0BOEWEdHnp0pGY-24">
                    <mxGeometry relative="1" as="geometry"/>
                </mxCell>
                <mxCell id="o0U5vX0BOEWEdHnp0pGY-20" value="&lt;span&gt;string[]&amp;nbsp;&lt;/span&gt;stringArray" style="shape=parallelogram;perimeter=parallelogramPerimeter;whiteSpace=wrap;html=1;fixedSize=1;" parent="WIyWlLk6GJQsqaUBKTNV-1" vertex="1">
                    <mxGeometry x="92" y="110" width="146" height="60" as="geometry"/>
                </mxCell>
                <mxCell id="6Gdfd7yEEAjI3EUGVg-4-1" value="" style="edgeStyle=orthogonalEdgeStyle;rounded=0;orthogonalLoop=1;jettySize=auto;html=1;entryX=0.5;entryY=0;entryDx=0;entryDy=0;" edge="1" parent="WIyWlLk6GJQsqaUBKTNV-1" source="o0U5vX0BOEWEdHnp0pGY-22" target="CVnxHdwHbPG0VgCHIR7x-0">
                    <mxGeometry relative="1" as="geometry">
                        <mxPoint x="162" y="380" as="targetPoint"/>
                    </mxGeometry>
                </mxCell>
                <mxCell id="o0U5vX0BOEWEdHnp0pGY-22" value="PrintArray(stringArray)" style="shape=process;whiteSpace=wrap;html=1;backgroundOutline=1;" parent="WIyWlLk6GJQsqaUBKTNV-1" vertex="1">
                    <mxGeometry x="42.5" y="290" width="240" height="60" as="geometry"/>
                </mxCell>
                <mxCell id="o0U5vX0BOEWEdHnp0pGY-23" value="" style="edgeStyle=orthogonalEdgeStyle;rounded=0;orthogonalLoop=1;jettySize=auto;html=1;" edge="1" parent="WIyWlLk6GJQsqaUBKTNV-1" source="o0U5vX0BOEWEdHnp0pGY-24" target="o0U5vX0BOEWEdHnp0pGY-22">
                    <mxGeometry relative="1" as="geometry"/>
                </mxCell>
                <mxCell id="o0U5vX0BOEWEdHnp0pGY-24" value="SearchItems(stringArray)" style="shape=process;whiteSpace=wrap;html=1;backgroundOutline=1;" parent="WIyWlLk6GJQsqaUBKTNV-1" vertex="1">
                    <mxGeometry x="42.5" y="200" width="240" height="60" as="geometry"/>
                </mxCell>
                <mxCell id="o0U5vX0BOEWEdHnp0pGY-25" value="" style="edgeStyle=orthogonalEdgeStyle;rounded=0;orthogonalLoop=1;jettySize=auto;html=1;" parent="WIyWlLk6GJQsqaUBKTNV-1" source="o0U5vX0BOEWEdHnp0pGY-26" target="o0U5vX0BOEWEdHnp0pGY-27" edge="1">
                    <mxGeometry relative="1" as="geometry"/>
                </mxCell>
                <mxCell id="o0U5vX0BOEWEdHnp0pGY-26" value="FillArraySelectedItemsAndPrint (stringArray)" style="shape=process;whiteSpace=wrap;html=1;backgroundOutline=1;" parent="WIyWlLk6GJQsqaUBKTNV-1" vertex="1">
                    <mxGeometry x="40.75" y="480" width="242.5" height="60" as="geometry"/>
                </mxCell>
                <mxCell id="o0U5vX0BOEWEdHnp0pGY-27" value="End" style="ellipse;whiteSpace=wrap;html=1;" parent="WIyWlLk6GJQsqaUBKTNV-1" vertex="1">
                    <mxGeometry x="89" y="570" width="146" height="50" as="geometry"/>
                </mxCell>
                <mxCell id="M8Fusr7i8-1K7RbTkL0C-0" value="&lt;span style=&quot;font-family: &amp;#34;helvetica&amp;#34; ; font-style: normal ; letter-spacing: normal ; text-align: center ; text-indent: 0px ; text-transform: none ; word-spacing: 0px ; background-color: rgb(248 , 249 , 250) ; display: inline ; float: none ; font-weight: normal&quot;&gt;&lt;font style=&quot;font-size: 12px&quot;&gt;&lt;u&gt;Примечание:&lt;br&gt;&lt;/u&gt;Расшифровка методов на следующих отдельных листах&lt;/font&gt;&lt;/span&gt;" style="text;whiteSpace=wrap;html=1;fontStyle=1;fontColor=#FF0000;" vertex="1" parent="WIyWlLk6GJQsqaUBKTNV-1">
                    <mxGeometry x="310" y="200" width="230" height="70" as="geometry"/>
                </mxCell>
                <mxCell id="6Gdfd7yEEAjI3EUGVg-4-2" value="" style="edgeStyle=orthogonalEdgeStyle;rounded=0;orthogonalLoop=1;jettySize=auto;html=1;exitX=0.5;exitY=1;exitDx=0;exitDy=0;" edge="1" parent="WIyWlLk6GJQsqaUBKTNV-1" source="CVnxHdwHbPG0VgCHIR7x-0" target="o0U5vX0BOEWEdHnp0pGY-26">
                    <mxGeometry relative="1" as="geometry">
                        <mxPoint x="162" y="430" as="sourcePoint"/>
                    </mxGeometry>
                </mxCell>
                <mxCell id="CVnxHdwHbPG0VgCHIR7x-0" value="&lt;font size=&quot;1&quot;&gt;&lt;b style=&quot;font-size: 18px&quot;&gt;-&amp;gt;&lt;/b&gt;&lt;/font&gt;" style="shape=parallelogram;perimeter=parallelogramPerimeter;whiteSpace=wrap;html=1;fixedSize=1;" vertex="1" parent="WIyWlLk6GJQsqaUBKTNV-1">
                    <mxGeometry x="85" y="390" width="155" height="50" as="geometry"/>
                </mxCell>
            </root>
        </mxGraphModel>
    </diagram>
    <diagram id="gzGjmr_PSfF4H_ANBf88" name="Метод SearchItems">
        <mxGraphModel dx="939" dy="1481" grid="1" gridSize="10" guides="1" tooltips="1" connect="1" arrows="1" fold="1" page="1" pageScale="1" pageWidth="827" pageHeight="1169" math="0" shadow="0">
            <root>
                <mxCell id="mz9-WsQUn0E9B6npMg28-0"/>
                <mxCell id="mz9-WsQUn0E9B6npMg28-1" parent="mz9-WsQUn0E9B6npMg28-0"/>
                <mxCell id="xWRUtACZxLFgmJ3Bpcwj-23" value="" style="edgeStyle=orthogonalEdgeStyle;rounded=0;orthogonalLoop=1;jettySize=auto;html=1;fontSize=12;" edge="1" parent="mz9-WsQUn0E9B6npMg28-1" source="xWRUtACZxLFgmJ3Bpcwj-24" target="xWRUtACZxLFgmJ3Bpcwj-26">
                    <mxGeometry relative="1" as="geometry"/>
                </mxCell>
                <mxCell id="xWRUtACZxLFgmJ3Bpcwj-24" value="Start" style="ellipse;whiteSpace=wrap;html=1;" vertex="1" parent="mz9-WsQUn0E9B6npMg28-1">
                    <mxGeometry x="265" y="60" width="120" height="40" as="geometry"/>
                </mxCell>
                <mxCell id="xWRUtACZxLFgmJ3Bpcwj-25" value="" style="edgeStyle=orthogonalEdgeStyle;rounded=0;orthogonalLoop=1;jettySize=auto;html=1;fontSize=12;" edge="1" parent="mz9-WsQUn0E9B6npMg28-1" source="xWRUtACZxLFgmJ3Bpcwj-26" target="xWRUtACZxLFgmJ3Bpcwj-28">
                    <mxGeometry relative="1" as="geometry"/>
                </mxCell>
                <mxCell id="xWRUtACZxLFgmJ3Bpcwj-26" value="string[] array" style="shape=parallelogram;perimeter=parallelogramPerimeter;whiteSpace=wrap;html=1;fixedSize=1;" vertex="1" parent="mz9-WsQUn0E9B6npMg28-1">
                    <mxGeometry x="247.5" y="130" width="155" height="40" as="geometry"/>
                </mxCell>
                <mxCell id="xWRUtACZxLFgmJ3Bpcwj-27" value="" style="edgeStyle=orthogonalEdgeStyle;rounded=0;orthogonalLoop=1;jettySize=auto;html=1;fontSize=12;" edge="1" parent="mz9-WsQUn0E9B6npMg28-1" source="xWRUtACZxLFgmJ3Bpcwj-28" target="xWRUtACZxLFgmJ3Bpcwj-31">
                    <mxGeometry relative="1" as="geometry"/>
                </mxCell>
                <mxCell id="xWRUtACZxLFgmJ3Bpcwj-28" value="int count = 0" style="shape=parallelogram;perimeter=parallelogramPerimeter;whiteSpace=wrap;html=1;fixedSize=1;" vertex="1" parent="mz9-WsQUn0E9B6npMg28-1">
                    <mxGeometry x="247.5" y="200" width="155" height="40" as="geometry"/>
                </mxCell>
                <mxCell id="xWRUtACZxLFgmJ3Bpcwj-29" value="" style="edgeStyle=orthogonalEdgeStyle;rounded=0;orthogonalLoop=1;jettySize=auto;html=1;fontSize=12;" edge="1" parent="mz9-WsQUn0E9B6npMg28-1" source="xWRUtACZxLFgmJ3Bpcwj-31" target="xWRUtACZxLFgmJ3Bpcwj-33">
                    <mxGeometry relative="1" as="geometry"/>
                </mxCell>
                <mxCell id="xWRUtACZxLFgmJ3Bpcwj-30" value="" style="edgeStyle=orthogonalEdgeStyle;rounded=0;orthogonalLoop=1;jettySize=auto;html=1;fontSize=12;entryX=0.5;entryY=0;entryDx=0;entryDy=0;" edge="1" parent="mz9-WsQUn0E9B6npMg28-1" source="xWRUtACZxLFgmJ3Bpcwj-31" target="JSdBidmdEso_ff7ye8nt-0">
                    <mxGeometry relative="1" as="geometry">
                        <mxPoint x="325" y="720" as="targetPoint"/>
                        <Array as="points">
                            <mxPoint x="520" y="300"/>
                            <mxPoint x="520" y="690"/>
                            <mxPoint x="320" y="690"/>
                        </Array>
                    </mxGeometry>
                </mxCell>
                <mxCell id="xWRUtACZxLFgmJ3Bpcwj-31" value="i = 0; i &amp;lt; array.Length; i++" style="shape=hexagon;perimeter=hexagonPerimeter2;whiteSpace=wrap;html=1;fixedSize=1;fontSize=12;" vertex="1" parent="mz9-WsQUn0E9B6npMg28-1">
                    <mxGeometry x="242.5" y="270" width="165" height="60" as="geometry"/>
                </mxCell>
                <mxCell id="xWRUtACZxLFgmJ3Bpcwj-32" value="" style="edgeStyle=orthogonalEdgeStyle;rounded=0;orthogonalLoop=1;jettySize=auto;html=1;fontSize=12;" edge="1" parent="mz9-WsQUn0E9B6npMg28-1" source="xWRUtACZxLFgmJ3Bpcwj-33" target="xWRUtACZxLFgmJ3Bpcwj-35">
                    <mxGeometry relative="1" as="geometry"/>
                </mxCell>
                <mxCell id="xWRUtACZxLFgmJ3Bpcwj-33" value="&lt;div&gt;string strTemp = array[i]&lt;/div&gt;" style="whiteSpace=wrap;html=1;" vertex="1" parent="mz9-WsQUn0E9B6npMg28-1">
                    <mxGeometry x="242.5" y="360" width="165" height="60" as="geometry"/>
                </mxCell>
                <mxCell id="xWRUtACZxLFgmJ3Bpcwj-34" value="" style="edgeStyle=orthogonalEdgeStyle;rounded=0;orthogonalLoop=1;jettySize=auto;html=1;fontSize=12;" edge="1" parent="mz9-WsQUn0E9B6npMg28-1" source="xWRUtACZxLFgmJ3Bpcwj-35" target="xWRUtACZxLFgmJ3Bpcwj-39">
                    <mxGeometry relative="1" as="geometry"/>
                </mxCell>
                <mxCell id="xWRUtACZxLFgmJ3Bpcwj-35" value="strTemp.Length &amp;lt;= 3" style="rhombus;whiteSpace=wrap;html=1;" vertex="1" parent="mz9-WsQUn0E9B6npMg28-1">
                    <mxGeometry x="245" y="450" width="160" height="80" as="geometry"/>
                </mxCell>
                <mxCell id="xWRUtACZxLFgmJ3Bpcwj-36" value="" style="edgeStyle=orthogonalEdgeStyle;rounded=0;orthogonalLoop=1;jettySize=auto;html=1;fontSize=12;exitX=0.5;exitY=1;exitDx=0;exitDy=0;" edge="1" parent="mz9-WsQUn0E9B6npMg28-1" source="JSdBidmdEso_ff7ye8nt-0" target="xWRUtACZxLFgmJ3Bpcwj-38">
                    <mxGeometry relative="1" as="geometry">
                        <mxPoint x="325" y="800" as="sourcePoint"/>
                    </mxGeometry>
                </mxCell>
                <mxCell id="xWRUtACZxLFgmJ3Bpcwj-38" value="End" style="ellipse;whiteSpace=wrap;html=1;" vertex="1" parent="mz9-WsQUn0E9B6npMg28-1">
                    <mxGeometry x="253.5" y="830" width="133" height="50" as="geometry"/>
                </mxCell>
                <mxCell id="xWRUtACZxLFgmJ3Bpcwj-39" value="&lt;div&gt;count++&lt;br&gt;&lt;/div&gt;" style="whiteSpace=wrap;html=1;" vertex="1" parent="mz9-WsQUn0E9B6npMg28-1">
                    <mxGeometry x="242.5" y="560" width="165" height="60" as="geometry"/>
                </mxCell>
                <mxCell id="xWRUtACZxLFgmJ3Bpcwj-40" value="Yes" style="text;html=1;strokeColor=none;fillColor=none;align=center;verticalAlign=middle;whiteSpace=wrap;rounded=0;fontSize=12;" vertex="1" parent="mz9-WsQUn0E9B6npMg28-1">
                    <mxGeometry x="310" y="510" width="60" height="70" as="geometry"/>
                </mxCell>
                <mxCell id="xWRUtACZxLFgmJ3Bpcwj-41" value="" style="edgeStyle=orthogonalEdgeStyle;rounded=0;orthogonalLoop=1;jettySize=auto;html=1;fontSize=12;entryX=0;entryY=0.5;entryDx=0;entryDy=0;exitX=0.5;exitY=1;exitDx=0;exitDy=0;" edge="1" parent="mz9-WsQUn0E9B6npMg28-1" source="xWRUtACZxLFgmJ3Bpcwj-39" target="xWRUtACZxLFgmJ3Bpcwj-31">
                    <mxGeometry relative="1" as="geometry">
                        <mxPoint x="300" y="670" as="sourcePoint"/>
                        <mxPoint x="180" y="585" as="targetPoint"/>
                        <Array as="points">
                            <mxPoint x="325" y="670"/>
                            <mxPoint x="140" y="670"/>
                            <mxPoint x="140" y="300"/>
                        </Array>
                    </mxGeometry>
                </mxCell>
                <mxCell id="xWRUtACZxLFgmJ3Bpcwj-42" value="" style="edgeStyle=orthogonalEdgeStyle;rounded=0;orthogonalLoop=1;jettySize=auto;html=1;fontSize=12;exitX=1;exitY=0.5;exitDx=0;exitDy=0;" edge="1" parent="mz9-WsQUn0E9B6npMg28-1" source="xWRUtACZxLFgmJ3Bpcwj-35">
                    <mxGeometry relative="1" as="geometry">
                        <mxPoint x="335" y="540" as="sourcePoint"/>
                        <mxPoint x="325" y="650" as="targetPoint"/>
                        <Array as="points">
                            <mxPoint x="480" y="490"/>
                            <mxPoint x="480" y="650"/>
                        </Array>
                    </mxGeometry>
                </mxCell>
                <mxCell id="xWRUtACZxLFgmJ3Bpcwj-43" value="No" style="text;html=1;strokeColor=none;fillColor=none;align=center;verticalAlign=middle;whiteSpace=wrap;rounded=0;fontSize=12;" vertex="1" parent="mz9-WsQUn0E9B6npMg28-1">
                    <mxGeometry x="402.5" y="460" width="60" height="30" as="geometry"/>
                </mxCell>
                <mxCell id="xWRUtACZxLFgmJ3Bpcwj-44" value="&lt;font style=&quot;font-size: 15px&quot; color=&quot;#ff0000&quot;&gt;&lt;b&gt;SearchItems(stringArray)&lt;/b&gt;&lt;/font&gt;" style="shape=process;whiteSpace=wrap;html=1;backgroundOutline=1;" vertex="1" parent="mz9-WsQUn0E9B6npMg28-1">
                    <mxGeometry x="205" y="-30" width="240" height="60" as="geometry"/>
                </mxCell>
                <mxCell id="JSdBidmdEso_ff7ye8nt-0" value="count&amp;nbsp;" style="shape=parallelogram;perimeter=parallelogramPerimeter;whiteSpace=wrap;html=1;fixedSize=1;" vertex="1" parent="mz9-WsQUn0E9B6npMg28-1">
                    <mxGeometry x="242.5" y="730" width="155" height="40" as="geometry"/>
                </mxCell>
            </root>
        </mxGraphModel>
    </diagram>
    <diagram id="RWxKRSJV4z6yzRIZUz2O" name="Метод PrintArray">
        <mxGraphModel dx="939" dy="1481" grid="1" gridSize="10" guides="1" tooltips="1" connect="1" arrows="1" fold="1" page="1" pageScale="1" pageWidth="827" pageHeight="1169" math="0" shadow="0">
            <root>
                <mxCell id="qSF8Lfo-RF_ev_LMWunw-0"/>
                <mxCell id="qSF8Lfo-RF_ev_LMWunw-1" parent="qSF8Lfo-RF_ev_LMWunw-0"/>
                <mxCell id="cDgKa7L6B92lJAbyyMb9-0" value="" style="edgeStyle=orthogonalEdgeStyle;rounded=0;orthogonalLoop=1;jettySize=auto;html=1;fontSize=12;" parent="qSF8Lfo-RF_ev_LMWunw-1" source="cDgKa7L6B92lJAbyyMb9-1" target="cDgKa7L6B92lJAbyyMb9-3" edge="1">
                    <mxGeometry relative="1" as="geometry"/>
                </mxCell>
                <mxCell id="cDgKa7L6B92lJAbyyMb9-1" value="Start" style="ellipse;whiteSpace=wrap;html=1;" parent="qSF8Lfo-RF_ev_LMWunw-1" vertex="1">
                    <mxGeometry x="265" y="60" width="120" height="40" as="geometry"/>
                </mxCell>
                <mxCell id="xZZeF-dHLeEuVPTDdfOC-2" value="" style="edgeStyle=orthogonalEdgeStyle;rounded=0;orthogonalLoop=1;jettySize=auto;html=1;fontSize=15;fontColor=#FF0000;" edge="1" parent="qSF8Lfo-RF_ev_LMWunw-1" source="cDgKa7L6B92lJAbyyMb9-3" target="1U82PFKWiLb7fN4a5ody-0">
                    <mxGeometry relative="1" as="geometry"/>
                </mxCell>
                <mxCell id="cDgKa7L6B92lJAbyyMb9-3" value="string[] array" style="shape=parallelogram;perimeter=parallelogramPerimeter;whiteSpace=wrap;html=1;fixedSize=1;" parent="qSF8Lfo-RF_ev_LMWunw-1" vertex="1">
                    <mxGeometry x="247.5" y="130" width="155" height="40" as="geometry"/>
                </mxCell>
                <mxCell id="xZZeF-dHLeEuVPTDdfOC-5" value="" style="edgeStyle=orthogonalEdgeStyle;rounded=0;orthogonalLoop=1;jettySize=auto;html=1;fontSize=15;fontColor=#FF0000;" edge="1" parent="qSF8Lfo-RF_ev_LMWunw-1" source="cDgKa7L6B92lJAbyyMb9-6" target="xZZeF-dHLeEuVPTDdfOC-4">
                    <mxGeometry relative="1" as="geometry"/>
                </mxCell>
                <mxCell id="cDgKa7L6B92lJAbyyMb9-6" value="array[i]" style="shape=parallelogram;perimeter=parallelogramPerimeter;whiteSpace=wrap;html=1;fixedSize=1;" parent="qSF8Lfo-RF_ev_LMWunw-1" vertex="1">
                    <mxGeometry x="247.5" y="360" width="155" height="40" as="geometry"/>
                </mxCell>
                <mxCell id="cDgKa7L6B92lJAbyyMb9-8" value="" style="edgeStyle=orthogonalEdgeStyle;rounded=0;orthogonalLoop=1;jettySize=auto;html=1;fontSize=12;entryX=0.5;entryY=0;entryDx=0;entryDy=0;exitX=1;exitY=0.5;exitDx=0;exitDy=0;" parent="qSF8Lfo-RF_ev_LMWunw-1" source="cDgKa7L6B92lJAbyyMb9-9" target="HQjunIbPtHSBWUaCHrgm-1" edge="1">
                    <mxGeometry relative="1" as="geometry">
                        <mxPoint x="318.5" y="560" as="targetPoint"/>
                        <Array as="points">
                            <mxPoint x="470" y="300"/>
                            <mxPoint x="470" y="590"/>
                            <mxPoint x="319" y="590"/>
                        </Array>
                    </mxGeometry>
                </mxCell>
                <mxCell id="cDgKa7L6B92lJAbyyMb9-22" value="" style="edgeStyle=orthogonalEdgeStyle;rounded=0;orthogonalLoop=1;jettySize=auto;html=1;fontSize=12;" parent="qSF8Lfo-RF_ev_LMWunw-1" source="cDgKa7L6B92lJAbyyMb9-9" target="cDgKa7L6B92lJAbyyMb9-6" edge="1">
                    <mxGeometry relative="1" as="geometry"/>
                </mxCell>
                <mxCell id="cDgKa7L6B92lJAbyyMb9-9" value="i = 0; i &amp;lt; array.Length; i++" style="shape=hexagon;perimeter=hexagonPerimeter2;whiteSpace=wrap;html=1;fixedSize=1;fontSize=12;" parent="qSF8Lfo-RF_ev_LMWunw-1" vertex="1">
                    <mxGeometry x="242.5" y="270" width="165" height="60" as="geometry"/>
                </mxCell>
                <mxCell id="cDgKa7L6B92lJAbyyMb9-14" value="" style="edgeStyle=orthogonalEdgeStyle;rounded=0;orthogonalLoop=1;jettySize=auto;html=1;fontSize=12;startArrow=none;" parent="qSF8Lfo-RF_ev_LMWunw-1" source="HQjunIbPtHSBWUaCHrgm-0" target="cDgKa7L6B92lJAbyyMb9-16" edge="1">
                    <mxGeometry relative="1" as="geometry">
                        <mxPoint x="318.5" y="640" as="sourcePoint"/>
                    </mxGeometry>
                </mxCell>
                <mxCell id="cDgKa7L6B92lJAbyyMb9-16" value="End" style="ellipse;whiteSpace=wrap;html=1;" parent="qSF8Lfo-RF_ev_LMWunw-1" vertex="1">
                    <mxGeometry x="247" y="750" width="133" height="50" as="geometry"/>
                </mxCell>
                <mxCell id="D6EWTBzBHX9ZqBL5-pCV-0" value="&lt;font color=&quot;#ff0000&quot; size=&quot;1&quot;&gt;&lt;b style=&quot;font-size: 16px&quot;&gt;PrintArray(stringArray)&lt;/b&gt;&lt;/font&gt;" style="shape=process;whiteSpace=wrap;html=1;backgroundOutline=1;" vertex="1" parent="qSF8Lfo-RF_ev_LMWunw-1">
                    <mxGeometry x="205" y="-30" width="240" height="60" as="geometry"/>
                </mxCell>
                <mxCell id="xZZeF-dHLeEuVPTDdfOC-3" value="" style="edgeStyle=orthogonalEdgeStyle;rounded=0;orthogonalLoop=1;jettySize=auto;html=1;fontSize=15;fontColor=#FF0000;" edge="1" parent="qSF8Lfo-RF_ev_LMWunw-1" source="1U82PFKWiLb7fN4a5ody-0" target="cDgKa7L6B92lJAbyyMb9-9">
                    <mxGeometry relative="1" as="geometry"/>
                </mxCell>
                <mxCell id="1U82PFKWiLb7fN4a5ody-0" value="&lt;font style=&quot;font-size: 15px&quot;&gt;&lt;b&gt;[&lt;/b&gt;&lt;/font&gt;" style="shape=parallelogram;perimeter=parallelogramPerimeter;whiteSpace=wrap;html=1;fixedSize=1;" vertex="1" parent="qSF8Lfo-RF_ev_LMWunw-1">
                    <mxGeometry x="247.5" y="200" width="155" height="40" as="geometry"/>
                </mxCell>
                <mxCell id="1W_SwgcBfKB5tKY4z88P-5" value="" style="edgeStyle=orthogonalEdgeStyle;rounded=0;orthogonalLoop=1;jettySize=auto;html=1;fontSize=15;fontColor=#FF0000;exitX=0.465;exitY=1;exitDx=0;exitDy=0;exitPerimeter=0;" edge="1" parent="qSF8Lfo-RF_ev_LMWunw-1" source="HQjunIbPtHSBWUaCHrgm-1" target="HQjunIbPtHSBWUaCHrgm-0">
                    <mxGeometry relative="1" as="geometry"/>
                </mxCell>
                <mxCell id="HQjunIbPtHSBWUaCHrgm-1" value="array" style="shape=parallelogram;perimeter=parallelogramPerimeter;whiteSpace=wrap;html=1;fixedSize=1;" vertex="1" parent="qSF8Lfo-RF_ev_LMWunw-1">
                    <mxGeometry x="242.5" y="610" width="155" height="40" as="geometry"/>
                </mxCell>
                <mxCell id="HQjunIbPtHSBWUaCHrgm-0" value="&lt;span style=&quot;font-size: 15px&quot;&gt;&lt;b&gt;]&lt;/b&gt;&lt;/span&gt;" style="shape=parallelogram;perimeter=parallelogramPerimeter;whiteSpace=wrap;html=1;fixedSize=1;" vertex="1" parent="qSF8Lfo-RF_ev_LMWunw-1">
                    <mxGeometry x="236" y="680" width="155" height="40" as="geometry"/>
                </mxCell>
                <mxCell id="1W_SwgcBfKB5tKY4z88P-1" value="" style="edgeStyle=orthogonalEdgeStyle;rounded=0;orthogonalLoop=1;jettySize=auto;html=1;fontSize=15;fontColor=#FF0000;" edge="1" parent="qSF8Lfo-RF_ev_LMWunw-1" source="xZZeF-dHLeEuVPTDdfOC-4" target="xZZeF-dHLeEuVPTDdfOC-6">
                    <mxGeometry relative="1" as="geometry"/>
                </mxCell>
                <mxCell id="xZZeF-dHLeEuVPTDdfOC-4" value="i != array.Length - 1" style="rhombus;whiteSpace=wrap;html=1;" vertex="1" parent="qSF8Lfo-RF_ev_LMWunw-1">
                    <mxGeometry x="250" y="430" width="150" height="60" as="geometry"/>
                </mxCell>
                <mxCell id="xZZeF-dHLeEuVPTDdfOC-6" value="&lt;font style=&quot;font-size: 15px&quot;&gt;&lt;b&gt;,&lt;/b&gt;&lt;/font&gt;" style="shape=parallelogram;perimeter=parallelogramPerimeter;whiteSpace=wrap;html=1;fixedSize=1;" vertex="1" parent="qSF8Lfo-RF_ev_LMWunw-1">
                    <mxGeometry x="247.5" y="530" width="155" height="40" as="geometry"/>
                </mxCell>
                <mxCell id="1W_SwgcBfKB5tKY4z88P-0" value="Yes" style="text;html=1;strokeColor=none;fillColor=none;align=center;verticalAlign=middle;whiteSpace=wrap;rounded=0;fontSize=12;" vertex="1" parent="qSF8Lfo-RF_ev_LMWunw-1">
                    <mxGeometry x="320" y="480" width="60" height="70" as="geometry"/>
                </mxCell>
                <mxCell id="1W_SwgcBfKB5tKY4z88P-2" value="" style="edgeStyle=orthogonalEdgeStyle;rounded=0;orthogonalLoop=1;jettySize=auto;html=1;fontSize=12;entryX=0;entryY=0.5;entryDx=0;entryDy=0;exitX=0;exitY=0.5;exitDx=0;exitDy=0;" edge="1" parent="qSF8Lfo-RF_ev_LMWunw-1" source="xZZeF-dHLeEuVPTDdfOC-4" target="cDgKa7L6B92lJAbyyMb9-9">
                    <mxGeometry relative="1" as="geometry">
                        <mxPoint x="40" y="660" as="targetPoint"/>
                        <Array as="points">
                            <mxPoint x="190" y="460"/>
                            <mxPoint x="190" y="300"/>
                        </Array>
                        <mxPoint x="129" y="320" as="sourcePoint"/>
                    </mxGeometry>
                </mxCell>
                <mxCell id="1W_SwgcBfKB5tKY4z88P-3" value="No" style="text;html=1;strokeColor=none;fillColor=none;align=center;verticalAlign=middle;whiteSpace=wrap;rounded=0;fontSize=12;" vertex="1" parent="qSF8Lfo-RF_ev_LMWunw-1">
                    <mxGeometry x="192" y="410" width="60" height="70" as="geometry"/>
                </mxCell>
                <mxCell id="1W_SwgcBfKB5tKY4z88P-4" value="" style="edgeStyle=orthogonalEdgeStyle;rounded=0;orthogonalLoop=1;jettySize=auto;html=1;fontSize=12;exitX=0;exitY=0.5;exitDx=0;exitDy=0;" edge="1" parent="qSF8Lfo-RF_ev_LMWunw-1" source="xZZeF-dHLeEuVPTDdfOC-6">
                    <mxGeometry relative="1" as="geometry">
                        <mxPoint x="190" y="460" as="targetPoint"/>
                        <Array as="points">
                            <mxPoint x="192" y="550"/>
                            <mxPoint x="192" y="470"/>
                            <mxPoint x="190" y="470"/>
                        </Array>
                        <mxPoint x="260" y="470" as="sourcePoint"/>
                    </mxGeometry>
                </mxCell>
            </root>
        </mxGraphModel>
    </diagram>
    <diagram id="zuPJoPuWChe6WzJnTrkx" name="Метод FillArraySelectedItemsAndPrint">
        <mxGraphModel dx="939" dy="1481" grid="1" gridSize="10" guides="1" tooltips="1" connect="1" arrows="1" fold="1" page="1" pageScale="1" pageWidth="827" pageHeight="1169" math="0" shadow="0">
            <root>
                <mxCell id="6rrKOsQROnbqfmGMxYo5-0"/>
                <mxCell id="6rrKOsQROnbqfmGMxYo5-1" parent="6rrKOsQROnbqfmGMxYo5-0"/>
                <mxCell id="SMqLMgtu9U6j1OgspUHp-0" value="" style="edgeStyle=orthogonalEdgeStyle;rounded=0;orthogonalLoop=1;jettySize=auto;html=1;fontSize=12;" parent="6rrKOsQROnbqfmGMxYo5-1" source="SMqLMgtu9U6j1OgspUHp-1" target="SMqLMgtu9U6j1OgspUHp-3" edge="1">
                    <mxGeometry relative="1" as="geometry"/>
                </mxCell>
                <mxCell id="SMqLMgtu9U6j1OgspUHp-1" value="Start" style="ellipse;whiteSpace=wrap;html=1;" parent="6rrKOsQROnbqfmGMxYo5-1" vertex="1">
                    <mxGeometry x="265" y="60" width="120" height="40" as="geometry"/>
                </mxCell>
                <mxCell id="SMqLMgtu9U6j1OgspUHp-2" value="" style="edgeStyle=orthogonalEdgeStyle;rounded=0;orthogonalLoop=1;jettySize=auto;html=1;fontSize=12;" parent="6rrKOsQROnbqfmGMxYo5-1" source="SMqLMgtu9U6j1OgspUHp-3" target="SMqLMgtu9U6j1OgspUHp-6" edge="1">
                    <mxGeometry relative="1" as="geometry"/>
                </mxCell>
                <mxCell id="SMqLMgtu9U6j1OgspUHp-3" value="string[] array" style="shape=parallelogram;perimeter=parallelogramPerimeter;whiteSpace=wrap;html=1;fixedSize=1;" parent="6rrKOsQROnbqfmGMxYo5-1" vertex="1">
                    <mxGeometry x="247.5" y="130" width="155" height="40" as="geometry"/>
                </mxCell>
                <mxCell id="K-gsIMe8QjD5n2myH6OJ-2" value="" style="edgeStyle=orthogonalEdgeStyle;rounded=0;orthogonalLoop=1;jettySize=auto;html=1;fontSize=14;fontColor=#FF0000;" edge="1" parent="6rrKOsQROnbqfmGMxYo5-1" source="SMqLMgtu9U6j1OgspUHp-6" target="K-gsIMe8QjD5n2myH6OJ-0">
                    <mxGeometry relative="1" as="geometry"/>
                </mxCell>
                <mxCell id="SMqLMgtu9U6j1OgspUHp-6" value="string[] newArray" style="shape=parallelogram;perimeter=parallelogramPerimeter;whiteSpace=wrap;html=1;fixedSize=1;" parent="6rrKOsQROnbqfmGMxYo5-1" vertex="1">
                    <mxGeometry x="247.5" y="200" width="155" height="40" as="geometry"/>
                </mxCell>
                <mxCell id="SMqLMgtu9U6j1OgspUHp-7" value="" style="edgeStyle=orthogonalEdgeStyle;rounded=0;orthogonalLoop=1;jettySize=auto;html=1;fontSize=12;" parent="6rrKOsQROnbqfmGMxYo5-1" source="SMqLMgtu9U6j1OgspUHp-9" target="SMqLMgtu9U6j1OgspUHp-11" edge="1">
                    <mxGeometry relative="1" as="geometry"/>
                </mxCell>
                <mxCell id="SMqLMgtu9U6j1OgspUHp-8" value="" style="edgeStyle=orthogonalEdgeStyle;rounded=0;orthogonalLoop=1;jettySize=auto;html=1;fontSize=12;entryX=0.448;entryY=-0.012;entryDx=0;entryDy=0;entryPerimeter=0;" parent="6rrKOsQROnbqfmGMxYo5-1" source="SMqLMgtu9U6j1OgspUHp-9" target="urBxp4vdf8SA5NGMB0BX-1" edge="1">
                    <mxGeometry relative="1" as="geometry">
                        <mxPoint x="328" y="800" as="targetPoint"/>
                        <Array as="points">
                            <mxPoint x="523" y="380"/>
                            <mxPoint x="523" y="1040"/>
                            <mxPoint x="317" y="1040"/>
                        </Array>
                    </mxGeometry>
                </mxCell>
                <mxCell id="SMqLMgtu9U6j1OgspUHp-9" value="i = 0; i &amp;lt; array.Length; i++" style="shape=hexagon;perimeter=hexagonPerimeter2;whiteSpace=wrap;html=1;fixedSize=1;fontSize=12;" parent="6rrKOsQROnbqfmGMxYo5-1" vertex="1">
                    <mxGeometry x="242.5" y="350" width="165" height="60" as="geometry"/>
                </mxCell>
                <mxCell id="SMqLMgtu9U6j1OgspUHp-10" value="" style="edgeStyle=orthogonalEdgeStyle;rounded=0;orthogonalLoop=1;jettySize=auto;html=1;fontSize=12;" parent="6rrKOsQROnbqfmGMxYo5-1" source="SMqLMgtu9U6j1OgspUHp-11" target="SMqLMgtu9U6j1OgspUHp-13" edge="1">
                    <mxGeometry relative="1" as="geometry"/>
                </mxCell>
                <mxCell id="SMqLMgtu9U6j1OgspUHp-11" value="&lt;div&gt;string strTemp = array[i]&lt;/div&gt;&lt;div&gt;int j = SearchItems(array) - 1&lt;/div&gt;" style="whiteSpace=wrap;html=1;" parent="6rrKOsQROnbqfmGMxYo5-1" vertex="1">
                    <mxGeometry x="239" y="440" width="177.5" height="60" as="geometry"/>
                </mxCell>
                <mxCell id="SMqLMgtu9U6j1OgspUHp-12" value="" style="edgeStyle=orthogonalEdgeStyle;rounded=0;orthogonalLoop=1;jettySize=auto;html=1;fontSize=12;" parent="6rrKOsQROnbqfmGMxYo5-1" source="SMqLMgtu9U6j1OgspUHp-13" target="SMqLMgtu9U6j1OgspUHp-17" edge="1">
                    <mxGeometry relative="1" as="geometry"/>
                </mxCell>
                <mxCell id="SMqLMgtu9U6j1OgspUHp-13" value="strTemp.Length &amp;lt;= 3" style="rhombus;whiteSpace=wrap;html=1;" parent="6rrKOsQROnbqfmGMxYo5-1" vertex="1">
                    <mxGeometry x="248" y="530" width="160" height="80" as="geometry"/>
                </mxCell>
                <mxCell id="SMqLMgtu9U6j1OgspUHp-16" value="End" style="ellipse;whiteSpace=wrap;html=1;" parent="6rrKOsQROnbqfmGMxYo5-1" vertex="1">
                    <mxGeometry x="253.5" y="1230" width="133" height="50" as="geometry"/>
                </mxCell>
                <mxCell id="SMqLMgtu9U6j1OgspUHp-17" value="&lt;div&gt;&lt;/div&gt;&lt;span&gt;newArray[j] = array[i]&lt;/span&gt;" style="whiteSpace=wrap;html=1;" parent="6rrKOsQROnbqfmGMxYo5-1" vertex="1">
                    <mxGeometry x="234.25" y="650" width="187.5" height="60" as="geometry"/>
                </mxCell>
                <mxCell id="SMqLMgtu9U6j1OgspUHp-18" value="Yes" style="text;html=1;strokeColor=none;fillColor=none;align=center;verticalAlign=middle;whiteSpace=wrap;rounded=0;fontSize=12;" parent="6rrKOsQROnbqfmGMxYo5-1" vertex="1">
                    <mxGeometry x="313" y="590" width="60" height="70" as="geometry"/>
                </mxCell>
                <mxCell id="SMqLMgtu9U6j1OgspUHp-19" value="" style="edgeStyle=orthogonalEdgeStyle;rounded=0;orthogonalLoop=1;jettySize=auto;html=1;fontSize=12;entryX=0;entryY=0.5;entryDx=0;entryDy=0;" parent="6rrKOsQROnbqfmGMxYo5-1" target="SMqLMgtu9U6j1OgspUHp-9" edge="1">
                    <mxGeometry relative="1" as="geometry">
                        <mxPoint x="328" y="950" as="sourcePoint"/>
                        <mxPoint x="183" y="665" as="targetPoint"/>
                        <Array as="points">
                            <mxPoint x="328" y="1020"/>
                            <mxPoint x="143" y="1020"/>
                            <mxPoint x="143" y="380"/>
                        </Array>
                    </mxGeometry>
                </mxCell>
                <mxCell id="SMqLMgtu9U6j1OgspUHp-20" value="" style="edgeStyle=orthogonalEdgeStyle;rounded=0;orthogonalLoop=1;jettySize=auto;html=1;fontSize=12;exitX=1;exitY=0.5;exitDx=0;exitDy=0;" parent="6rrKOsQROnbqfmGMxYo5-1" source="SMqLMgtu9U6j1OgspUHp-13" edge="1">
                    <mxGeometry relative="1" as="geometry">
                        <mxPoint x="338" y="620" as="sourcePoint"/>
                        <mxPoint x="328" y="990" as="targetPoint"/>
                        <Array as="points">
                            <mxPoint x="483" y="570"/>
                            <mxPoint x="483" y="990"/>
                            <mxPoint x="328" y="990"/>
                        </Array>
                    </mxGeometry>
                </mxCell>
                <mxCell id="SMqLMgtu9U6j1OgspUHp-21" value="No" style="text;html=1;strokeColor=none;fillColor=none;align=center;verticalAlign=middle;whiteSpace=wrap;rounded=0;fontSize=12;" parent="6rrKOsQROnbqfmGMxYo5-1" vertex="1">
                    <mxGeometry x="405.5" y="540" width="60" height="30" as="geometry"/>
                </mxCell>
                <mxCell id="LbMKzEGxjjpgnHWY90tJ-0" value="&lt;b&gt;&lt;font color=&quot;#ff0000&quot; style=&quot;font-size: 14px&quot;&gt;FillArraySelectedItemsAndPrint (stringArray)&lt;/font&gt;&lt;/b&gt;" style="shape=process;whiteSpace=wrap;html=1;backgroundOutline=1;" vertex="1" parent="6rrKOsQROnbqfmGMxYo5-1">
                    <mxGeometry x="180" y="-30" width="306" height="60" as="geometry"/>
                </mxCell>
                <mxCell id="K-gsIMe8QjD5n2myH6OJ-3" value="" style="edgeStyle=orthogonalEdgeStyle;rounded=0;orthogonalLoop=1;jettySize=auto;html=1;fontSize=14;fontColor=#FF0000;" edge="1" parent="6rrKOsQROnbqfmGMxYo5-1" source="K-gsIMe8QjD5n2myH6OJ-0" target="SMqLMgtu9U6j1OgspUHp-9">
                    <mxGeometry relative="1" as="geometry"/>
                </mxCell>
                <mxCell id="K-gsIMe8QjD5n2myH6OJ-0" value="&lt;font style=&quot;font-size: 15px&quot;&gt;&lt;b&gt;[&lt;/b&gt;&lt;/font&gt;" style="shape=parallelogram;perimeter=parallelogramPerimeter;whiteSpace=wrap;html=1;fixedSize=1;" vertex="1" parent="6rrKOsQROnbqfmGMxYo5-1">
                    <mxGeometry x="247.5" y="270" width="155" height="40" as="geometry"/>
                </mxCell>
                <mxCell id="urBxp4vdf8SA5NGMB0BX-0" value="" style="edgeStyle=orthogonalEdgeStyle;rounded=0;orthogonalLoop=1;jettySize=auto;html=1;fontSize=15;fontColor=#FF0000;exitX=0.465;exitY=1;exitDx=0;exitDy=0;exitPerimeter=0;" edge="1" parent="6rrKOsQROnbqfmGMxYo5-1" source="urBxp4vdf8SA5NGMB0BX-1" target="urBxp4vdf8SA5NGMB0BX-2">
                    <mxGeometry relative="1" as="geometry"/>
                </mxCell>
                <mxCell id="urBxp4vdf8SA5NGMB0BX-1" value="newArray" style="shape=parallelogram;perimeter=parallelogramPerimeter;whiteSpace=wrap;html=1;fixedSize=1;" vertex="1" parent="6rrKOsQROnbqfmGMxYo5-1">
                    <mxGeometry x="247.5" y="1070" width="155" height="40" as="geometry"/>
                </mxCell>
                <mxCell id="Txu-p3o6VyvuscX0dHnB-1" value="" style="edgeStyle=orthogonalEdgeStyle;rounded=0;orthogonalLoop=1;jettySize=auto;html=1;fontSize=14;fontColor=#FF0000;" edge="1" parent="6rrKOsQROnbqfmGMxYo5-1" source="urBxp4vdf8SA5NGMB0BX-2" target="SMqLMgtu9U6j1OgspUHp-16">
                    <mxGeometry relative="1" as="geometry"/>
                </mxCell>
                <mxCell id="urBxp4vdf8SA5NGMB0BX-2" value="&lt;span style=&quot;font-size: 15px&quot;&gt;&lt;b&gt;]&lt;/b&gt;&lt;/span&gt;" style="shape=parallelogram;perimeter=parallelogramPerimeter;whiteSpace=wrap;html=1;fixedSize=1;" vertex="1" parent="6rrKOsQROnbqfmGMxYo5-1">
                    <mxGeometry x="242.5" y="1150" width="155" height="40" as="geometry"/>
                </mxCell>
                <mxCell id="LIDZrAOvWuywfgCTKWMp-0" value="" style="edgeStyle=orthogonalEdgeStyle;rounded=0;orthogonalLoop=1;jettySize=auto;html=1;fontSize=15;fontColor=#FF0000;" edge="1" parent="6rrKOsQROnbqfmGMxYo5-1" source="LIDZrAOvWuywfgCTKWMp-1" target="LIDZrAOvWuywfgCTKWMp-3">
                    <mxGeometry relative="1" as="geometry"/>
                </mxCell>
                <mxCell id="LIDZrAOvWuywfgCTKWMp-1" value="array[i]" style="shape=parallelogram;perimeter=parallelogramPerimeter;whiteSpace=wrap;html=1;fixedSize=1;" vertex="1" parent="6rrKOsQROnbqfmGMxYo5-1">
                    <mxGeometry x="247.5" y="760" width="155" height="40" as="geometry"/>
                </mxCell>
                <mxCell id="LIDZrAOvWuywfgCTKWMp-2" value="" style="edgeStyle=orthogonalEdgeStyle;rounded=0;orthogonalLoop=1;jettySize=auto;html=1;fontSize=15;fontColor=#FF0000;" edge="1" parent="6rrKOsQROnbqfmGMxYo5-1" source="LIDZrAOvWuywfgCTKWMp-3" target="LIDZrAOvWuywfgCTKWMp-4">
                    <mxGeometry relative="1" as="geometry"/>
                </mxCell>
                <mxCell id="LIDZrAOvWuywfgCTKWMp-3" value="i != array.Length - 1" style="rhombus;whiteSpace=wrap;html=1;" vertex="1" parent="6rrKOsQROnbqfmGMxYo5-1">
                    <mxGeometry x="250" y="830" width="150" height="60" as="geometry"/>
                </mxCell>
                <mxCell id="LIDZrAOvWuywfgCTKWMp-4" value="&lt;font style=&quot;font-size: 15px&quot;&gt;&lt;b&gt;,&lt;/b&gt;&lt;/font&gt;" style="shape=parallelogram;perimeter=parallelogramPerimeter;whiteSpace=wrap;html=1;fixedSize=1;" vertex="1" parent="6rrKOsQROnbqfmGMxYo5-1">
                    <mxGeometry x="247.5" y="930" width="155" height="40" as="geometry"/>
                </mxCell>
                <mxCell id="LIDZrAOvWuywfgCTKWMp-5" value="Yes" style="text;html=1;strokeColor=none;fillColor=none;align=center;verticalAlign=middle;whiteSpace=wrap;rounded=0;fontSize=12;" vertex="1" parent="6rrKOsQROnbqfmGMxYo5-1">
                    <mxGeometry x="313" y="880" width="60" height="70" as="geometry"/>
                </mxCell>
                <mxCell id="LIDZrAOvWuywfgCTKWMp-8" value="" style="edgeStyle=orthogonalEdgeStyle;rounded=0;orthogonalLoop=1;jettySize=auto;html=1;fontSize=15;fontColor=#FF0000;entryX=0.5;entryY=0;entryDx=0;entryDy=0;exitX=0.5;exitY=1;exitDx=0;exitDy=0;" edge="1" parent="6rrKOsQROnbqfmGMxYo5-1" source="SMqLMgtu9U6j1OgspUHp-17" target="LIDZrAOvWuywfgCTKWMp-1">
                    <mxGeometry relative="1" as="geometry">
                        <mxPoint x="324.5" y="700" as="sourcePoint"/>
                        <mxPoint x="324.5" y="730" as="targetPoint"/>
                        <Array as="points">
                            <mxPoint x="325" y="710"/>
                            <mxPoint x="325" y="750"/>
                        </Array>
                    </mxGeometry>
                </mxCell>
                <mxCell id="KiSb6e5djht9UPBct6zG-0" value="" style="edgeStyle=orthogonalEdgeStyle;rounded=0;orthogonalLoop=1;jettySize=auto;html=1;fontSize=15;fontColor=#FF0000;exitX=0;exitY=0.5;exitDx=0;exitDy=0;" edge="1" parent="6rrKOsQROnbqfmGMxYo5-1" source="LIDZrAOvWuywfgCTKWMp-3">
                    <mxGeometry relative="1" as="geometry">
                        <mxPoint x="335" y="810" as="sourcePoint"/>
                        <mxPoint x="140" y="860" as="targetPoint"/>
                        <Array as="points">
                            <mxPoint x="220" y="860"/>
                            <mxPoint x="220" y="860"/>
                        </Array>
                    </mxGeometry>
                </mxCell>
                <mxCell id="Txu-p3o6VyvuscX0dHnB-0" value="No" style="text;html=1;strokeColor=none;fillColor=none;align=center;verticalAlign=middle;whiteSpace=wrap;rounded=0;fontSize=12;" vertex="1" parent="6rrKOsQROnbqfmGMxYo5-1">
                    <mxGeometry x="174.25" y="810" width="60" height="70" as="geometry"/>
                </mxCell>
            </root>
        </mxGraphModel>
    </diagram>
</mxfile>